# xmcd
# Track frame offsets:
# 150
# 13442
# 34691
# 52768
# 69170
# 85575
# 99694
# 115470
# 129452
# 147521
# 162767
# 181471
# 197521
# 215805
# 232757
#
# Disc length: 3353 seconds
# Revision: 0
# Processed by: cddbd v1.5.2PL0 Copyright (c) Steve Scherf et al.
# Submitted via: VisiTrax 2.10.3.257 - For more info visit www.synapsa.com
#
DISCID=cb0d170f
DTITLE="Various Artists" - Guy Country Karaoke DISK 2 OF 2
DYEAR=2003
DGENRE=General Contemporary Country
TTITLE0=Toby Keith - A Little Less Talk
TTITLE1=Kenny Chesney - A Lot Of Things Different
TTITLE2=Kenny Chesney - Big Star
TTITLE3=Toby Keith - Country Comes To Town
TTITLE4=Toby Keith - Courtesy Of The Red White And BLue
TTITLE5=Kenny Chesney - Don't Happen Twice
TTITLE6=Every River - Every River
TTITLE7=Toby Keith - He Ain't Worth Missing
TTITLE8=Chris Cagle - I Breathe In, I Breathe Out
TTITLE9=Steve Azar - I Don't Have To Be Me Till Monday
TTITLE10=Kenny Chesney - I Lost It
TTITLE11=Darryl Worley - I Miss My Friend
TTITLE12=Brad Paisley - I Wish You's Stay
TTITLE13=Allen, Gary - Man To Man
TTITLE14=Montgomery Gentry - My Town
EXTD=All Star Karaoke
EXTT0=
EXTT1=
EXTT2=
EXTT3=
EXTT4=
EXTT5=
EXTT6=
EXTT7=
EXTT8=
EXTT9=
EXTT10=
EXTT11=
EXTT12=
EXTT13=
EXTT14=
PLAYORDER=
